<?xml version="1.0" encoding="utf-8"?>
<!-- Generator: Adobe Illustrator 16.0.0, SVG Export Plug-In . SVG Version: 6.00 Build 0)  -->
<!DOCTYPE svg PUBLIC "-//W3C//DTD SVG 1.1//EN" "http://www.w3.org/Graphics/SVG/1.1/DTD/svg11.dtd">
<svg version="1.1" id="Layer_1" xmlns="http://www.w3.org/2000/svg" xmlns:xlink="http://www.w3.org/1999/xlink" x="0px" y="0px"
	 width="1054px" height="761px" viewBox="0 0 1054 761" enable-background="new 0 0 1054 761" xml:space="preserve">
<g>
	<path fill="#09BC8A" d="M250.717,700.966H989.14V413.522L619.947,302.052l-369.23,111.471V700.966z M1015.514,753.695H224.365H198
		v-26.36V393.8v-19.498l18.829-5.535L612.41,249.313l7.536-2.438l7.509,2.438l395.595,119.454l18.829,5.535V393.8v333.535v26.36
		H1015.514z"/>
	<path fill="#09BC8A" d="M443.739,353.915c-0.645,68.918-20.82,140.942-58.487,203.214
		c-35.012,57.616-85.317,107.267-149.377,138.292l-11.51,5.545l-11.523-5.545C148.796,664.396,98.49,614.745,63.465,557.129
		C25.576,494.857,5.637,422.833,4.95,353.915v-0.442c0.687-68.705,20.626-140.726,58.515-203.223
		C98.49,92.63,148.796,43.209,212.842,11.963l11.523-5.54l11.51,5.54C299.934,43.209,350.24,92.63,385.252,150.25
		c37.667,62.497,57.842,134.518,58.487,203.223V353.915z M340.243,530.091c32.827-54.293,50.333-116.79,51.005-176.406
		c-0.673-59.386-18.179-122.1-51.005-176.171c-27.684-45.876-66.674-85.543-115.878-112.144
		c-49.217,26.601-88.208,66.268-115.918,112.144c-32.786,54.071-50.292,116.785-50.965,176.171
		c0.673,59.616,18.179,122.113,50.965,176.406c27.71,45.659,66.701,85.548,115.918,112.144
		C273.569,615.639,312.559,575.75,340.243,530.091L340.243,530.091z"/>
	<rect x="198" y="47.196" fill="#09BC8A" width="52.716" height="613.203"/>
	<polygon fill="#09BC8A" points="106.04,150.024 236.755,280.555 199.544,318.005 68.788,187.263 	"/>
	<polygon fill="#09BC8A" points="51.955,307.371 242.973,498.406 205.744,535.636 14.686,344.609 	"/>
	<rect x="467.698" y="498.186" fill="#09BC8A" width="202.333" height="52.522"/>
	<path fill="#09BC8A" d="M769.983,498.186h124.98h26.374v26.369v202.78v26.36h-26.374h-124.98h-26.379v-26.36v-202.78v-26.369
		H769.983z M868.584,550.708h-72.25v150.258h72.25V550.708z"/>
</g>
</svg>
