<?xml version="1.0" encoding="utf-8"?>
<!-- Generator: Adobe Illustrator 16.0.0, SVG Export Plug-In . SVG Version: 6.00 Build 0)  -->
<!DOCTYPE svg PUBLIC "-//W3C//DTD SVG 1.1//EN" "http://www.w3.org/Graphics/SVG/1.1/DTD/svg11.dtd">
<svg version="1.1" id="Layer_1" xmlns="http://www.w3.org/2000/svg" xmlns:xlink="http://www.w3.org/1999/xlink" x="0px" y="0px"
	 width="40px" height="40px" viewBox="0 0 40 40" enable-background="new 0 0 40 40" xml:space="preserve">
<g>
	<path d="M5.137,39.389c0.558,0.31,1.239,0.292,1.781-0.047l13.115-8.197l13.115,8.197c0.284,0.178,0.607,0.267,0.93,0.267
		c0.293,0,0.586-0.072,0.852-0.22c0.558-0.31,0.904-0.896,0.904-1.535V6.252c0-2.905-2.362-5.267-5.267-5.267H9.499
		c-2.904,0-5.267,2.362-5.267,5.267v31.601C4.232,38.492,4.579,39.079,5.137,39.389z M7.744,6.252c0-0.968,0.788-1.756,1.755-1.756
		h21.067c0.968,0,1.756,0.788,1.756,1.756v28.433l-11.359-7.1c-0.285-0.178-0.607-0.267-0.93-0.267s-0.646,0.089-0.93,0.267
		l-11.359,7.1V6.252z"/>
</g>
</svg>
