<?xml version="1.0" encoding="utf-8"?>
<!-- Generator: Adobe Illustrator 16.0.0, SVG Export Plug-In . SVG Version: 6.00 Build 0)  -->
<!DOCTYPE svg PUBLIC "-//W3C//DTD SVG 1.1//EN" "http://www.w3.org/Graphics/SVG/1.1/DTD/svg11.dtd">
<svg version="1.1" id="Layer_1" xmlns="http://www.w3.org/2000/svg" xmlns:xlink="http://www.w3.org/1999/xlink" x="0px" y="0px"
	 width="40px" height="40px" viewBox="0 0 40 40" enable-background="new 0 0 40 40" xml:space="preserve">
<g>
	<path d="M2.757,39.471h34.888c1.07,0,1.938-0.868,1.938-1.938V18.151V8.46c0-1.07-0.867-1.938-1.938-1.938h-7.753V2.646
		c0-1.071-0.868-1.938-1.939-1.938c-1.069,0-1.938,0.868-1.938,1.938v3.875H14.387V2.646c0-1.071-0.868-1.938-1.938-1.938
		c-1.07,0-1.938,0.868-1.938,1.938v3.875H2.757c-1.07,0-1.938,0.868-1.938,1.938v9.691v19.382
		C0.819,38.603,1.687,39.471,2.757,39.471z M4.695,10.398h31.012v5.814H4.695V10.398z M4.695,20.089h31.012v15.506H4.695V20.089z"/>
</g>
</svg>
