<?xml version="1.0" encoding="utf-8"?>
<!-- Generator: Adobe Illustrator 21.0.0, SVG Export Plug-In . SVG Version: 6.00 Build 0)  -->
<svg version="1.1" id="Layer_1" xmlns="http://www.w3.org/2000/svg" xmlns:xlink="http://www.w3.org/1999/xlink" x="0px" y="0px"
	 viewBox="0 0 40 40" style="enable-background:new 0 0 40 40;" xml:space="preserve">
<style type="text/css">
	.st0{fill:#1D2B33;}
</style>
<path class="st0" d="M15.1,33.7L15.1,33.7c-1.5,1.5-4,1.5-5.5,0l-6.4-6.4c-1.5-1.5-1.5-4,0-5.5l0,0c1.5-1.5,4-1.5,5.5,0l6.4,6.4
	C16.7,29.7,16.7,32.1,15.1,33.7z"/>
<path class="st0" d="M9.7,33.7L9.7,33.7c-1.5-1.5-1.5-3.9,0-5.4L31.8,6.2c1.5-1.5,3.9-1.5,5.4,0l0,0c1.5,1.5,1.5,3.9,0,5.4
	L15.1,33.7C13.6,35.2,11.2,35.2,9.7,33.7z"/>
</svg>
