<?xml version="1.0" encoding="utf-8"?>
<!-- Generator: Adobe Illustrator 16.0.0, SVG Export Plug-In . SVG Version: 6.00 Build 0)  -->
<!DOCTYPE svg PUBLIC "-//W3C//DTD SVG 1.1//EN" "http://www.w3.org/Graphics/SVG/1.1/DTD/svg11.dtd">
<svg version="1.1" id="Layer_1" xmlns="http://www.w3.org/2000/svg" xmlns:xlink="http://www.w3.org/1999/xlink" x="0px" y="0px"
	 width="40px" height="40px" viewBox="0 0 40 40" enable-background="new 0 0 40 40" xml:space="preserve">
<path d="M9.719,1.328c-1.131,1.132-1.131,2.94,0,4.071L24.32,20.001L9.719,34.604c-1.131,1.131-1.131,2.939,0,4.07
	s2.94,1.131,4.071,0l16.332-16.331c0.113-0.085,0.224-0.179,0.328-0.283c0.571-0.571,0.854-1.315,0.848-2.059
	c0.006-0.743-0.276-1.487-0.848-2.059c-0.104-0.103-0.215-0.197-0.328-0.282L13.79,1.328C12.659,0.197,10.85,0.197,9.719,1.328z"/>
</svg>
