<?xml version="1.0" encoding="utf-8"?>
<!-- Generator: Adobe Illustrator 16.0.0, SVG Export Plug-In . SVG Version: 6.00 Build 0)  -->
<!DOCTYPE svg PUBLIC "-//W3C//DTD SVG 1.1//EN" "http://www.w3.org/Graphics/SVG/1.1/DTD/svg11.dtd">
<svg version="1.1" id="Layer_1" xmlns="http://www.w3.org/2000/svg" xmlns:xlink="http://www.w3.org/1999/xlink" x="0px" y="0px"
	 width="40px" height="40px" viewBox="0 0 40 40" enable-background="new 0 0 40 40" xml:space="preserve">
<g>
	<path d="M18.412,21.872l2.305,16.15c0.124,0.867,0.812,1.546,1.681,1.661c0.086,0.012,0.172,0.017,0.255,0.017
		c0.774,0,1.487-0.46,1.798-1.185L39.538,3.313c0.002-0.005,0.002-0.012,0.005-0.018c0.016-0.037,0.016-0.076,0.029-0.114
		c0.063-0.182,0.101-0.367,0.108-0.556c0.004-0.072-0.005-0.14-0.01-0.212c-0.01-0.163-0.041-0.318-0.092-0.473
		c-0.021-0.068-0.04-0.134-0.07-0.2c-0.096-0.21-0.215-0.41-0.386-0.581c-0.17-0.169-0.371-0.291-0.581-0.385
		c-0.065-0.03-0.13-0.048-0.196-0.069c-0.156-0.052-0.315-0.083-0.48-0.094C37.796,0.607,37.73,0.6,37.661,0.603
		c-0.189,0.008-0.377,0.044-0.562,0.11c-0.036,0.012-0.074,0.014-0.11,0.029c-0.006,0.002-0.012,0.002-0.018,0.004L1.769,15.832
		c-0.806,0.345-1.283,1.184-1.168,2.053c0.114,0.869,0.794,1.557,1.661,1.681L18.412,21.872z M23.603,30.563l-1.389-9.729
		l9.729-9.728L23.603,30.563z M29.178,8.341l-9.728,9.729l-9.73-1.39L29.178,8.341z"/>
</g>
</svg>
