<?xml version="1.0" encoding="utf-8"?>
<!-- Generator: Adobe Illustrator 16.0.0, SVG Export Plug-In . SVG Version: 6.00 Build 0)  -->
<!DOCTYPE svg PUBLIC "-//W3C//DTD SVG 1.1//EN" "http://www.w3.org/Graphics/SVG/1.1/DTD/svg11.dtd">
<svg version="1.1" id="Layer_1" xmlns="http://www.w3.org/2000/svg" xmlns:xlink="http://www.w3.org/1999/xlink" x="0px" y="0px"
	 width="40px" height="40px" viewBox="0 0 40 40" enable-background="new 0 0 40 40" xml:space="preserve">
<g>
	<path d="M19.865,0.917c-10.629,0-19.276,8.647-19.276,19.276s8.647,19.275,19.276,19.275c10.63,0,19.278-8.646,19.278-19.275
		S30.495,0.917,19.865,0.917z M19.865,35.965c-8.696,0-15.772-7.076-15.772-15.771c0-8.696,7.076-15.771,15.772-15.771
		c8.697,0,15.772,7.076,15.772,15.771C35.637,28.889,28.562,35.965,19.865,35.965z"/>
</g>
<g>
	<path d="M23.735,9.091c-2.007-1.331-4.491-1.533-6.814-0.553c-2.47,1.044-4.066,3.552-4.066,6.388v0.01
		c0,0.968,0.785,1.747,1.752,1.747s1.753-0.789,1.753-1.757c0-1.404,0.773-2.672,1.925-3.159c1.665-0.705,2.917-0.15,3.514,0.246
		c0.984,0.653,1.571,1.746,1.571,2.923c0,1.069-0.479,2.066-1.313,2.737c-2.507,2.011-3.944,4.843-3.944,7.778
		c0,0.967,0.785,1.746,1.752,1.746s1.752-0.791,1.752-1.758c0-1.855,0.958-3.691,2.633-5.033c1.669-1.338,2.625-3.332,2.625-5.47
		C26.875,12.58,25.701,10.396,23.735,9.091z"/>
</g>
<g>
	<circle cx="19.865" cy="30.708" r="1.753"/>
</g>
</svg>
