<?xml version="1.0" encoding="utf-8"?>
<!-- Generator: Adobe Illustrator 16.0.0, SVG Export Plug-In . SVG Version: 6.00 Build 0)  -->
<!DOCTYPE svg PUBLIC "-//W3C//DTD SVG 1.1//EN" "http://www.w3.org/Graphics/SVG/1.1/DTD/svg11.dtd">
<svg version="1.1" id="Layer_1" xmlns="http://www.w3.org/2000/svg" xmlns:xlink="http://www.w3.org/1999/xlink" x="0px" y="0px"
	 width="40px" height="40px" viewBox="0 0 40 40" enable-background="new 0 0 40 40" xml:space="preserve">
<g>
	<path d="M37.964,4.387H2.244c-0.987,0-1.786,0.8-1.786,1.786v28.576c0,0.985,0.798,1.785,1.786,1.785h35.72
		c0.987,0,1.786-0.8,1.786-1.785V6.173C39.75,5.187,38.951,4.387,37.964,4.387z M36.179,32.962H4.03v-0.948l8.988-7.491l2.326,1.746
		l-1.86,1.859c-0.698,0.698-0.698,1.827,0,2.524c0.698,0.698,1.828,0.698,2.525,0l11.046-11.045l9.124,12.165V32.962z
		 M36.179,25.819l-7.502-10.002c-0.311-0.414-0.785-0.673-1.302-0.71c-0.533-0.031-1.023,0.152-1.39,0.519l-8.09,8.09l-3.862-2.897
		c-0.665-0.497-1.579-0.475-2.216,0.057L4.03,27.363V7.958h32.148V25.819z"/>
</g>
<g>
	<circle cx="11.174" cy="15.103" r="3.572"/>
</g>
</svg>
