<?xml version="1.0" encoding="utf-8"?>
<!-- Generator: Adobe Illustrator 16.0.0, SVG Export Plug-In . SVG Version: 6.00 Build 0)  -->
<!DOCTYPE svg PUBLIC "-//W3C//DTD SVG 1.1//EN" "http://www.w3.org/Graphics/SVG/1.1/DTD/svg11.dtd">
<svg version="1.1" id="Layer_1" xmlns="http://www.w3.org/2000/svg" xmlns:xlink="http://www.w3.org/1999/xlink" x="0px" y="0px"
	 width="1321px" height="802.5px" viewBox="0 0 1321 802.5" enable-background="new 0 0 1321 802.5" xml:space="preserve">
<path fill="#aaaaaa" d="M1279.75,66.25c-37.5-37.5-97.5-37.5-135,0L660.5,550.5L176.25,66.25c-37.5-37.5-97.5-37.5-135,0
	s-37.5,97.5,0,135l541.598,541.599c2.818,3.8,5.948,7.447,9.402,10.901c18.942,18.942,43.625,28.302,68.25,28.107
	c24.625,0.194,49.308-9.165,68.25-28.107c3.454-3.454,6.584-7.102,9.401-10.901L1279.75,201.25
	C1317.25,163.75,1317.25,103.75,1279.75,66.25z"/>
</svg>
