<?xml version="1.0" encoding="utf-8"?>
<!-- Generator: Adobe Illustrator 16.0.0, SVG Export Plug-In . SVG Version: 6.00 Build 0)  -->
<!DOCTYPE svg PUBLIC "-//W3C//DTD SVG 1.1//EN" "http://www.w3.org/Graphics/SVG/1.1/DTD/svg11.dtd">
<svg version="1.1" id="Layer_1" xmlns="http://www.w3.org/2000/svg" xmlns:xlink="http://www.w3.org/1999/xlink" x="0px" y="0px"
	 width="40px" height="40px" viewBox="0 0 40 40" enable-background="new 0 0 40 40" xml:space="preserve">
<g>
	<path fill="#F2F2F2" d="M16.023,11.935c0.908-2.044,0.444-4.489-1.153-6.084l-3.686-3.688C9.938,0.918,8.223,0.352,6.488,0.619
		c-1.75,0.266-3.23,1.321-4.057,2.894C0.642,6.905,0.198,10.688,1.145,14.45c2.352,9.332,15.179,22.162,24.514,24.511
		c1.286,0.325,2.575,0.485,3.852,0.485c2.449,0,4.852-0.594,7.085-1.769c1.572-0.828,2.629-2.307,2.892-4.061
		c0.265-1.738-0.299-3.449-1.543-4.693l-3.686-3.689c-1.6-1.597-4.046-2.057-6.088-1.148c-1.033,0.463-1.908,1.05-2.602,1.746
		c-0.313,0.313-0.898,0.36-1.727,0.136c-3.578-0.958-8.745-6.127-9.702-9.701c-0.223-0.832-0.178-1.413,0.138-1.728
		C14.978,13.837,15.563,12.964,16.023,11.935z M22.925,29.384c2.674,0.72,4.27-0.177,5.146-1.054
		c0.387-0.391,0.908-0.732,1.541-1.016c0.715-0.321,1.576-0.148,2.146,0.421l3.687,3.688c0.442,0.441,0.643,1.05,0.55,1.666
		c-0.098,0.628-0.478,1.16-1.045,1.459c-2.649,1.393-5.485,1.723-8.428,0.983C18.492,33.511,6.595,21.615,4.573,13.587
		c-0.74-2.943-0.409-5.778,0.986-8.427C5.858,4.592,6.391,4.21,7.02,4.115C7.119,4.1,7.219,4.093,7.316,4.093
		c0.512,0,0.997,0.2,1.368,0.57l3.686,3.689c0.57,0.567,0.739,1.431,0.423,2.143c-0.281,0.632-0.625,1.152-1.017,1.545
		c-0.874,0.874-1.767,2.475-1.054,5.14C12.001,21.946,18.158,28.105,22.925,29.384z"/>
</g>
</svg>
