<?xml version="1.0" encoding="utf-8"?>
<!-- Generator: Adobe Illustrator 16.0.0, SVG Export Plug-In . SVG Version: 6.00 Build 0)  -->
<!DOCTYPE svg PUBLIC "-//W3C//DTD SVG 1.1//EN" "http://www.w3.org/Graphics/SVG/1.1/DTD/svg11.dtd">
<svg version="1.1" id="Layer_1" xmlns="http://www.w3.org/2000/svg" xmlns:xlink="http://www.w3.org/1999/xlink" x="0px" y="0px"
	 width="514.775px" height="443.445px" viewBox="0 0 514.775 443.445" enable-background="new 0 0 514.775 443.445"
	 xml:space="preserve">
<path fill="black" d="M152.969,190.511c-9.939,25.312-15.713,50.629-17.411,75.86c2.722-1.47,6.646-2.858,11.744-4.248
	c19.693-5.388,38.507-3.181,56.508,6.821c17.97,9.902,30.055,26.08,36.175,48.446c7.205,26.322,3.324,50.184-11.564,71.563
	c-14.888,21.485-37.272,36.213-67.154,44.392c-30.576,8.371-57.835,5.413-81.72-8.936c-23.904-14.286-40.182-37.298-48.825-68.872
	c-11.348-41.458-9.921-87.81,4.223-139.151c14.169-51.243,38.842-96.912,74.111-136.981l79.866,47.113
	C174.834,143.794,162.866,165.155,152.969,190.511z M462.284,198.199c17.598,10.002,29.49,26.229,35.617,48.602
	c7.205,26.323,3.534,50.128-11.001,71.415c-14.51,21.38-36.739,36.069-66.596,44.236c-30.607,8.377-58.046,5.469-82.285-8.78
	c-24.275-14.188-40.714-37.155-49.357-68.729c-11.174-40.832-9.55-87.084,4.904-138.768c14.423-51.671,38.91-97.495,73.436-137.366
	l79.842,47.12c-13.877,17.945-25.826,39.456-35.791,64.464c-10.014,25.025-15.502,50.052-16.476,75.085
	c2.003-1.271,5.581-2.562,10.678-3.956C425.631,185.947,444.636,188.104,462.284,198.199z"/>
</svg>
