<?xml version="1.0" encoding="utf-8"?>
<!-- Generator: Adobe Illustrator 16.0.0, SVG Export Plug-In . SVG Version: 6.00 Build 0)  -->
<!DOCTYPE svg PUBLIC "-//W3C//DTD SVG 1.1//EN" "http://www.w3.org/Graphics/SVG/1.1/DTD/svg11.dtd">
<svg version="1.1" id="Layer_1" xmlns="http://www.w3.org/2000/svg" xmlns:xlink="http://www.w3.org/1999/xlink" x="0px" y="0px"
	 width="40px" height="40px" viewBox="0 0 40 40" enable-background="new 0 0 40 40" xml:space="preserve">
<g>
	<path d="M19.986,39.553c3.36,0,6.65-0.873,9.575-2.537l7.311,2.438c0.201,0.067,0.41,0.1,0.615,0.1
		c0.506,0,1.004-0.199,1.375-0.568c0.521-0.521,0.702-1.292,0.469-1.991l-2.437-7.311c1.662-2.925,2.537-6.215,2.537-9.574
		c0-10.722-8.724-19.445-19.445-19.445c-10.721,0-19.445,8.724-19.445,19.445C0.542,30.83,9.265,39.553,19.986,39.553z
		 M19.986,4.553c8.577,0,15.556,6.978,15.556,15.556c0,2.933-0.835,5.803-2.417,8.3c-0.313,0.493-0.387,1.101-0.201,1.655
		l1.487,4.47l-4.469-1.488c-0.559-0.19-1.163-0.111-1.655,0.2c-2.498,1.582-5.366,2.418-8.301,2.418
		c-8.578,0-15.556-6.978-15.556-15.555C4.431,11.53,11.409,4.553,19.986,4.553z"/>
</g>
<g>
	<path d="M12.208,17.191h15.555c1.075,0,1.945-0.87,1.945-1.944c0-1.075-0.87-1.945-1.945-1.945H12.208
		c-1.075,0-1.944,0.87-1.944,1.945C10.264,16.322,11.133,17.191,12.208,17.191z"/>
</g>
<g>
	<path d="M12.208,26.913h7.776c1.074,0,1.944-0.869,1.944-1.943c0-1.075-0.87-1.944-1.944-1.944h-7.776
		c-1.075,0-1.944,0.869-1.944,1.944C10.264,26.044,11.133,26.913,12.208,26.913z"/>
</g>
</svg>
