<?xml version="1.0" encoding="utf-8"?>
<!-- Generator: Adobe Illustrator 16.0.0, SVG Export Plug-In . SVG Version: 6.00 Build 0)  -->
<!DOCTYPE svg PUBLIC "-//W3C//DTD SVG 1.1//EN" "http://www.w3.org/Graphics/SVG/1.1/DTD/svg11.dtd">
<svg version="1.1" id="Layer_1" xmlns="http://www.w3.org/2000/svg" xmlns:xlink="http://www.w3.org/1999/xlink" x="0px" y="0px"
	 width="118px" height="26.5px" viewBox="0 0 118 26.5" enable-background="new 0 0 118 26.5" xml:space="preserve">
<g>
	<polygon fill="#CEC35B" points="14.075,4.196 16.286,11 23.44,11 17.652,15.184 19.863,21.977 14.075,17.767 8.288,21.969 
		10.498,15.185 4.71,11 11.864,11 	"/>
	<polygon fill="#CEC35B" points="36.575,4.196 38.786,11 45.94,11 40.152,15.184 42.363,21.977 36.575,17.767 30.788,21.969 
		32.998,15.185 27.21,11 34.364,11 	"/>
	<polygon fill="#CEC35B" points="59.075,4.196 61.286,11 68.439,11 62.652,15.184 64.863,21.977 59.075,17.767 53.288,21.969 
		55.498,15.185 49.71,11 56.864,11 	"/>
	<polygon fill="#CEC35B" points="81.575,4.196 83.786,11 90.939,11 85.152,15.184 87.363,21.977 81.575,17.767 75.787,21.969 
		77.998,15.185 72.211,11 79.364,11 	"/>
	<polygon fill="#CEC35B" points="104.075,4.196 106.286,11 113.439,11 107.652,15.184 109.863,21.977 104.075,17.767 98.287,21.969 
		100.498,15.185 94.711,11 101.864,11 	"/>
</g>
</svg>
