<?xml version="1.0" encoding="utf-8"?>
<!-- Generator: Adobe Illustrator 16.0.0, SVG Export Plug-In . SVG Version: 6.00 Build 0)  -->
<!DOCTYPE svg PUBLIC "-//W3C//DTD SVG 1.1//EN" "http://www.w3.org/Graphics/SVG/1.1/DTD/svg11.dtd">
<svg version="1.1" id="Layer_1" xmlns="http://www.w3.org/2000/svg" xmlns:xlink="http://www.w3.org/1999/xlink" x="0px" y="0px"
	 width="16.458px" height="40px" viewBox="0 0 16.458 40" enable-background="new 0 0 16.458 40" xml:space="preserve">
<g opacity="0.1">
	<path d="M3.644,15.599v9.155c0,0.822,0.666,1.489,1.488,1.489c0.823,0,1.488-0.667,1.488-1.489v-9.155
		c0-0.821-0.665-1.488-1.488-1.488C4.31,14.111,3.644,14.778,3.644,15.599z"/>
</g>
<g opacity="0.1">
	<path d="M3.644,2.059v9.155c0,0.822,0.666,1.489,1.488,1.489c0.823,0,1.488-0.667,1.488-1.489V2.059
		c0-0.821-0.665-1.488-1.488-1.488C4.31,0.571,3.644,1.238,3.644,2.059z"/>
</g>
<g opacity="0.1">
	<path d="M3.644,28.835v7.442H2.75c-0.823,0-1.488,0.666-1.488,1.486c0,0.823,0.665,1.488,1.488,1.488h10.69
		c0.822,0,1.487-0.665,1.487-1.488c0-0.82-0.665-1.486-1.487-1.486H6.62v-7.442c0-0.823-0.665-1.489-1.488-1.489
		C4.31,27.346,3.644,28.012,3.644,28.835z"/>
</g>
</svg>
